<?xml version="1.0" encoding="utf-8"?>
<!-- Generator: Adobe Illustrator 25.0.0, SVG Export Plug-In . SVG Version: 6.00 Build 0)  -->
<svg version="1.1" id="레이어_1" xmlns="http://www.w3.org/2000/svg" xmlns:xlink="http://www.w3.org/1999/xlink" x="0px"
	 y="0px" viewBox="0 0 800 800" style="enable-background:new 0 0 800 800;" xml:space="preserve">
<style type="text/css">
	.st0{fill:#F9D2D2;}
</style>
<path class="st0" d="M300,533.3C93.8,327.1,103.7,171.1,198,100.4l20.9-15.6c22-16.2,52.9-11.5,69.1,10.5c0.3,0.4,0.6,0.8,0.9,1.2
	l52.6,75.7c14.6,21,11,49.6-8.3,66.3l-50.7,43.8c-12.7,11-18.9,27.6-13.2,43.4c10.5,29.3,36.1,81.1,96.6,141.5
	c60.5,60.5,112.2,86,141.5,96.6c15.8,5.7,32.4-0.5,43.4-13.2l43.8-50.6c16.7-19.3,45.3-22.9,66.3-8.3l75.9,52.7
	c22.5,15.4,28.1,46.2,12.7,68.6c-0.3,0.4-0.6,0.8-0.9,1.3L733,635.5C662.3,729.7,506.3,739.6,300,533.3z"/>
</svg>
