<?xml version="1.0" encoding="utf-8"?>
<!-- Generator: Adobe Illustrator 25.0.0, SVG Export Plug-In . SVG Version: 6.00 Build 0)  -->
<svg version="1.1" id="Layer_1" xmlns="http://www.w3.org/2000/svg" xmlns:xlink="http://www.w3.org/1999/xlink" x="0px" y="0px"
	 viewBox="0 0 800 800" style="enable-background:new 0 0 800 800;" xml:space="preserve">
<style type="text/css">
	.st0{fill:#7A9BDD;}
</style>
<g>
	<g>
		<path class="st0" d="M794.8,181.2L567.5,408.5l221.7,221.8c6.7-11.5,10.8-24.8,10.8-39.1V208.7C800,199,798,189.8,794.8,181.2z"/>
	</g>
</g>
<g>
	<g>
		<path class="st0" d="M721.7,130.4H78.3c-13,0-25.1,3.5-35.9,9.1L384,481.2c9.9,9.9,27.1,9.9,36.9,0l340-339.9
			C749.3,134.6,736.1,130.4,721.7,130.4z"/>
	</g>
</g>
<g>
	<g>
		<path class="st0" d="M6.6,177.5C2.4,187.1,0,197.6,0,208.7v382.6c0,14.1,4,27.1,10.5,38.5l224.1-224.2L6.6,177.5z"/>
	</g>
</g>
<g>
	<g>
		<path class="st0" d="M530.4,445.6l-72.5,72.7c-30.5,30.1-79.8,30.6-110.8,0l-75.5-75.7L50,664.1c8.8,3.4,18.3,5.5,28.3,5.5h643.5
			c9.7,0,19-2,27.6-5.3L530.4,445.6z"/>
	</g>
</g>
</svg>
